<svg width="136" height="108" viewBox="0 0 136 108" fill="none" xmlns="http://www.w3.org/2000/svg">
<path d="M55.7905 66.1509C54.669 65.1929 53.6681 63.5183 52.0169 63.7598C47.3981 64.6633 43.3324 68.433 40.3727 71.9497C39.3251 73.3049 38.2346 74.7108 37.7673 76.3075C37.7323 76.4438 37.74 76.5256 37.7128 76.4749C37.6972 76.4165 37.5298 76.2491 37.4597 76.2452C37.3818 76.2257 37.4869 76.2958 37.6232 76.3192C39.033 76.4827 40.6219 75.9141 42.0784 75.4741C45.3458 74.407 48.508 72.8454 51.6664 71.42C53.045 70.8787 56.1566 69.2508 56.62 71.6615C56.6824 72.4988 56.5889 73.3984 56.5538 74.1967C56.4253 76.1244 56.7174 77.8847 57.6793 79.5048C58.7892 81.4987 60.9078 82.4411 63.0497 83.0759C63.3067 83.1421 63.9882 83.3369 64.2375 83.3953C64.5724 83.4303 64.9307 83.551 65.2656 83.5627L65.9666 83.6017C70.0868 83.5121 73.989 80.9457 77.5835 78.8233C82.8215 75.6844 88.0478 72.0275 94.0451 70.353C97.258 69.4456 100.88 69.3794 103.859 71.054C103.956 71.1007 103.995 71.2175 103.949 71.3149C103.91 71.3928 103.824 71.4356 103.742 71.42H103.719L102.874 71.2681C102.052 71.1202 101.199 71.1085 100.374 71.1552C93.0014 71.8017 86.1278 78.4533 79.7917 82.3477C75.4222 85.1049 70.2037 87.9556 64.7749 87.1534C62.5512 86.7133 60.3703 85.8916 58.5088 84.5558C56.2851 83.0448 54.9455 80.4122 54.7001 77.7406C54.4392 75.6532 55.074 73.7722 55.2336 71.7939C55.2375 71.7588 55.2298 71.751 55.2336 71.7316C55.2336 71.7121 55.2531 71.7433 55.2609 71.7316C54.8442 71.5641 54.1783 71.7822 53.7109 71.9068C52.0909 72.417 50.5565 73.2037 49.0416 73.9981C45.8871 75.6221 43.0053 77.7367 39.5665 78.9596C36.2524 80.1863 33.5497 78.3404 34.7102 74.6952C36.7781 68.7329 45.0888 61.9995 51.5262 61.9722C53.1346 61.8982 54.5911 62.9731 55.2726 64.3244C55.5802 64.858 55.7944 65.4188 56.0787 65.8744C56.1995 66.0536 55.9541 66.2639 55.7944 66.1353L55.7905 66.1509Z" fill="url(#paint0_linear_128_329)"/>
<path d="M89.376 16.7195C65.6202 52.5479 69.4873 77.3629 72.673 78.8662C75.7378 80.311 83.5617 63.1834 87.8611 65.2358C90.9999 66.7351 86.8875 83.3447 81.8248 88.7968C75.4146 95.6977 73.1286 85.3503 74.9667 82.9241" stroke="url(#paint1_linear_128_329)" stroke-width="3.5" stroke-miterlimit="10" stroke-linecap="round"/>
<defs>
<linearGradient id="paint0_linear_128_329" x1="69.2024" y1="61.9686" x2="69.2024" y2="87.2909" gradientUnits="userSpaceOnUse">
<stop offset="0.134615" stop-color="#DFAC9A"/>
<stop offset="0.524038" stop-color="#F7AB85"/>
<stop offset="0.875" stop-color="#F8EECF"/>
</linearGradient>
<linearGradient id="paint1_linear_128_329" x1="79.832" y1="16.7195" x2="79.832" y2="91.1332" gradientUnits="userSpaceOnUse">
<stop offset="0.134615" stop-color="#DFAC9A"/>
<stop offset="0.524038" stop-color="#F7AB85"/>
<stop offset="0.875" stop-color="#F8EECF"/>
</linearGradient>
</defs>
</svg>
