<?xml version="1.0" encoding="UTF-8"?>
<svg id="Layer_1" xmlns="http://www.w3.org/2000/svg" version="1.1" viewBox="0 0 347 303">
  <!-- Generator: Adobe Illustrator 29.6.1, SVG Export Plug-In . SVG Version: 2.1.1 Build 9)  -->
  <defs>
    <style>
      .st0 {
        fill: none;
        stroke: #21000e;
        stroke-linecap: round;
        stroke-miterlimit: 10;
        stroke-width: 7px;
      }

      .st1 {
        fill: #21000e;
      }
    </style>
  </defs>
  <path class="st1" d="M143.26,172.43c-2.88-2.46-5.45-6.76-9.69-6.14-11.86,2.32-22.3,12-29.9,21.03-2.69,3.48-5.49,7.09-6.69,11.19-.09.35-.07.56-.14.43-.04-.15-.47-.58-.65-.59-.2-.05.07.13.42.19,3.62.42,7.7-1.04,11.44-2.17,8.39-2.74,16.51-6.75,24.62-10.41,3.54-1.39,11.53-5.57,12.72.62.16,2.15-.08,4.46-.17,6.51-.33,4.95.42,9.47,2.89,13.63,2.85,5.12,8.29,7.54,13.79,9.17.66.17,2.41.67,3.05.82.86.09,1.78.4,2.64.43,0,0,1.8.1,1.8.1,10.58-.23,20.6-6.82,29.83-12.27,13.45-8.06,26.87-17.45,42.27-21.75,8.25-2.33,17.55-2.5,25.2,1.8.25.12.35.42.23.67-.1.2-.32.31-.53.27h-.06s-2.17-.39-2.17-.39c-2.11-.38-4.3-.41-6.42-.29-18.93,1.66-36.58,18.74-52.85,28.74-11.22,7.08-24.62,14.4-38.56,12.34-5.71-1.13-11.31-3.24-16.09-6.67-5.71-3.88-9.15-10.64-9.78-17.5-.67-5.36.96-10.19,1.37-15.27.01-.09-.01-.11,0-.16,0-.05.05.03.07,0-1.07-.43-2.78.13-3.98.45-4.16,1.31-8.1,3.33-11.99,5.37-8.1,4.17-15.5,9.6-24.33,12.74-8.51,3.15-15.45-1.59-12.47-10.95,5.31-15.31,26.65-32.6,43.18-32.67,4.13-.19,7.87,2.57,9.62,6.04.79,1.37,1.34,2.81,2.07,3.98.31.46-.32,1-.73.67h0Z"/>
  <path class="st0" d="M229.5,45.5c-61,92-51.07,155.72-42.89,159.58,7.87,3.71,27.96-40.27,39-35,8.06,3.85-2.5,46.5-15.5,60.5-16.46,17.72-22.33-8.85-17.61-15.08"/>
</svg>